# xmcd
# 
# Track frame offsets:
#     150
#     14048
#     27556
#     45202
#     57296
#     75329
#     89270
#     103587
#     117818
#     136846
# 
# Disc length: 2131
# 
# Revision: 0
# Processed by: cddbd v1.5.2PL0 Copyright (c) Steve Scherf et al.
# Submitted via: BonkEnc v1.0.8
# 
DISCID=7308510a
DTITLE=Mustard Seed Faith - Sail On Sailor
DYEAR=1975
DGENRE=
TTITLE0=The Question
TTITLE1=Let Go
TTITLE2=Can't Work Your Way to Heaven (Let Him)
TTITLE3=Once I Had a Dream
TTITLE4=Dried Up Well
TTITLE5=Sail On Sailor
TTITLE6=Lighter Side of Darkness
TTITLE7=Sweet Jesus Morning
TTITLE8=More than Sunlight
TTITLE9=Back Home
EXTD=Maranatha! Music
EXTT0=
EXTT1=
EXTT2=
EXTT3=
EXTT4=
EXTT5=
EXTT6=
EXTT7=
EXTT8=
EXTT9=
PLAYORDER=
